<svg xmlns="http://www.w3.org/2000/svg" width="1200" height="630" viewBox="0 0 1200 630" fill="none">
  <rect width="1200" height="630" fill="#F6F0E8"/>
  <circle cx="164" cy="110" r="240" fill="#D4A08E" fill-opacity="0.5"/>
  <circle cx="1080" cy="540" r="260" fill="#D6D8C5" fill-opacity="0.6"/>
  <rect x="62" y="62" width="1076" height="506" rx="36" fill="#FFF8F1" stroke="#C9917A"/>
  <!-- M3 mark in rounded rect -->
  <rect x="98" y="98" width="116" height="116" rx="28" fill="#2D2926"/>
  <g transform="translate(110, 98) scale(0.558) translate(-120, -76)">
    <rect x="120" y="76" width="28" height="126" fill="#A8503A"/>
    <rect x="181" y="116" width="28" height="168" fill="#A8503A"/>
    <path d="M 120 198 L 120 210 C 120 280 209 280 209 210 L 209 198 L 181 198 C 181 256 148 256 148 198 Z" fill="#A8503A"/>
    <polygon points="205,116 269,116 285,140 205,140" fill="#A8503A"/>
    <polygon points="205,260 285,260 269,284 205,284" fill="#A8503A"/>
  </g>
  <text x="98" y="308" fill="#2F2621" font-family="Playfair Display, Georgia, serif" font-size="72" font-weight="600">NYC's OpenClaw Experts</text>
  <text x="98" y="374" fill="#695A52" font-family="Inter, Arial, sans-serif" font-size="30">AI assistant setup, managed care, and live implementation for New York teams.</text>
  <text x="98" y="432" fill="#695A52" font-family="Inter, Arial, sans-serif" font-size="30">UrClaw gets your workflows running on your machine, not in a demo.</text>
  <rect x="98" y="472" width="314" height="60" rx="30" fill="#A8503A"/>
  <text x="136" y="510" fill="#FFF8F1" font-family="Inter, Arial, sans-serif" font-size="28" font-weight="600">urclaw.com</text>
</svg>
