<svg viewBox="0 0 400 400" xmlns="http://www.w3.org/2000/svg">
  <!-- V3: Speech bubble with claw-U and assistant theme -->
  <defs>
    <linearGradient id="bg-grad-v3" x1="0%" y1="0%" x2="100%" y2="100%">
      <stop offset="0%" style="stop-color:#FF7A5A;stop-opacity:1" />
      <stop offset="50%" style="stop-color:#FF9A76;stop-opacity:1" />
      <stop offset="100%" style="stop-color:#FFBC94;stop-opacity:1" />
    </linearGradient>
    <linearGradient id="bubble-grad-v3" x1="0%" y1="0%" x2="0%" y2="100%">
      <stop offset="0%" style="stop-color:#FFFFFF;stop-opacity:1" />
      <stop offset="100%" style="stop-color:#FFF9F5;stop-opacity:1" />
    </linearGradient>
    <filter id="shadow-v3">
      <feGaussianBlur in="SourceAlpha" stdDeviation="4"/>
      <feOffset dx="0" dy="4" result="offsetblur"/>
      <feComponentTransfer>
        <feFuncA type="linear" slope="0.3"/>
      </feComponentTransfer>
      <feMerge>
        <feMergeNode/>
        <feMergeNode in="SourceGraphic"/>
      </feMerge>
    </filter>
  </defs>
  
  <!-- Background -->
  <circle cx="200" cy="200" r="200" fill="url(#bg-grad-v3)"/>
  
  <!-- Main speech bubble -->
  <g filter="url(#shadow-v3)">
    <rect x="80" y="100" width="240" height="180" rx="40" fill="url(#bubble-grad-v3)"/>
    <!-- Speech tail -->
    <path d="M 150 280 L 130 320 L 180 280 Z" fill="url(#bubble-grad-v3)"/>
  </g>
  
  <!-- Large "U" with claw design inside bubble -->
  <g transform="translate(200, 190)">
    <!-- U letterform with claw pincers at bottom -->
    <path d="M -60 -50 L -60 20 Q -60 60 0 60 Q 60 60 60 20 L 60 -50 L 35 -50 L 35 20 Q 35 40 0 40 Q -35 40 -35 20 L -35 -50 Z" 
          fill="#FF6B35"/>
    
    <!-- Claw pincer left at U bottom -->
    <g transform="translate(-50, 50)">
      <ellipse cx="0" cy="0" rx="15" ry="8" fill="#FFD700" transform="rotate(-30)"/>
      <path d="M -8 0 L -15 -5 L -12 5 Z" fill="#FF8C42"/>
    </g>
    
    <!-- Claw pincer right at U bottom -->
    <g transform="translate(50, 50)">
      <ellipse cx="0" cy="0" rx="15" ry="8" fill="#FFD700" transform="rotate(30)"/>
      <path d="M 8 0 L 15 -5 L 12 5 Z" fill="#FF8C42"/>
    </g>
    
    <!-- Eye dots to make it friendly -->
    <circle cx="-20" cy="-20" r="6" fill="#FFFFFF"/>
    <circle cx="20" cy="-20" r="6" fill="#FFFFFF"/>
    <circle cx="-20" cy="-20" r="3" fill="#333"/>
    <circle cx="20" cy="-20" r="3" fill="#333"/>
  </g>
  
  <!-- Small "r" suffix bottom right of bubble -->
  <text x="280" y="260" font-family="Arial, sans-serif" font-size="50" font-weight="bold" fill="#FF6B35">r</text>
  
  <!-- Sparkle/assistant indicators -->
  <g opacity="0.7">
    <!-- Top left sparkle -->
    <path d="M 100 80 L 105 90 L 110 80 L 105 85 Z" fill="#FFD700"/>
    <path d="M 105 75 L 100 85 L 105 95 L 105 85 Z" fill="#FFD700"/>
    
    <!-- Top right sparkle -->
    <path d="M 300 120 L 305 130 L 310 120 L 305 125 Z" fill="#FFD700"/>
    <path d="M 305 115 L 300 125 L 305 135 L 305 125 Z" fill="#FFD700"/>
  </g>
  
  <!-- Subtle claw prints trail -->
  <g opacity="0.3" fill="#FF4444">
    <ellipse cx="240" cy="320" rx="8" ry="6" transform="rotate(20 240 320)"/>
    <ellipse cx="260" cy="340" rx="8" ry="6" transform="rotate(15 260 340)"/>
    <ellipse cx="280" cy="355" rx="8" ry="6" transform="rotate(10 280 355)"/>
  </g>
</svg>
